<svg xmlns="http://www.w3.org/2000/svg" version="1.0" width="548.000000pt" height="133.000000pt" viewBox="0 0 548.000000 133.000000" preserveAspectRatio="xMidYMid meet" transform="matrix(1, 0, 0, 1, 0, 0)">

<g transform="translate(0.000000,133.000000) scale(0.100000,-0.100000)" fill="#ffffff" stroke="none">
<path d="M3185 1255 c-14 -13 -25 -36 -25 -50 0 -33 41 -75 73 -75 38 0 77 36 77 71 0 37 -40 79 -75 79 -14 0 -37 -11 -50 -25z" fill="#ffffff"/>
<path d="M4119 1261 c-17 -13 -23 -29 -23 -56 0 -68 77 -100 122 -52 64 68 -26 167 -99 108z" fill="#ffffff"/>
<path d="M3505 1229 c-33 -16 -68 -29 -77 -29 -31 0 -21 -37 12 -49 17 -5 31 -11 32 -13 1 -2 5 -138 8 -303 5 -279 6 -300 23 -303 10 -2 29 8 42 22 31 34 51 33 107 -4 69 -46 128 -50 198 -13 97 51 147 151 137 274 -10 117 -57 196 -141 235 -66 31 -121 31 -179 -1 l-46 -24 -3 117 c-3 117 -3 117 -28 119 -14 1 -52 -11 -85 -28z m295 -273 c42 -87 45 -301 5 -362 -35 -54 -95 -52 -151 7 l-29 30 -3 167 c-3 188 -2 194 63 216 53 19 85 2 115 -58z" fill="#ffffff"/>
<path d="M4485 1251 c-6 -6 -39 -21 -75 -34 -74 -28 -90 -53 -41 -63 21 -4 33 -14 36 -28 3 -11 4 -138 3 -281 l-3 -260 -32 -10 c-22 -6 -33 -15 -33 -27 0 -16 12 -18 140 -18 133 0 140 1 140 20 0 13 -7 20 -18 20 -43 0 -53 21 -50 105 l3 80 80 -99 c86 -107 123 -133 201 -142 41 -5 52 -3 67 14 17 19 17 20 -12 32 -17 7 -50 33 -73 59 -48 51 -171 215 -170 226 1 15 177 155 209 166 22 7 33 17 33 30 0 18 -8 19 -120 19 -114 0 -120 -1 -120 -20 0 -13 10 -24 25 -30 14 -5 25 -16 25 -25 0 -16 -126 -155 -141 -155 -5 0 -10 96 -11 213 l-3 212 -25 3 c-14 2 -30 -2 -35 -7z" fill="#ffffff"/>
<path d="M2861 1161 c-14 -56 -43 -88 -89 -97 -38 -8 -45 -41 -9 -46 22 -3 22 -5 27 -198 6 -210 12 -236 62 -273 36 -27 114 -33 161 -14 30 13 37 21 37 43 0 22 -3 25 -12 16 -16 -16 -70 -16 -86 0 -18 18 -17 430 1 427 6 -1 31 -1 55 0 35 1 42 4 42 21 0 18 -7 20 -55 20 l-55 0 0 75 0 75 -33 0 c-31 0 -34 -3 -46 -49z" fill="#ffffff"/>
<path d="M125 1039 c-33 -16 -68 -29 -77 -29 -31 0 -22 -37 11 -43 38 -8 41 -22 41 -208 0 -138 -2 -158 -18 -172 -10 -10 -26 -17 -35 -17 -10 0 -17 -8 -17 -20 0 -19 7 -20 140 -20 128 0 140 2 140 18 0 12 -11 21 -32 27 l-33 10 -3 135 c-3 146 6 198 40 230 27 25 47 25 96 0 31 -16 45 -18 65 -11 33 13 49 43 41 76 -9 35 -41 55 -87 55 -58 0 -106 -27 -139 -79 l-29 -46 3 60 c3 58 2 60 -22 62 -14 1 -52 -11 -85 -28z" fill="#ffffff"/>
<path d="M691 1059 c-104 -32 -171 -123 -179 -245 -8 -128 40 -219 144 -270 48 -23 63 -26 124 -22 151 11 242 116 241 280 0 151 -91 253 -232 263 -35 2 -79 0 -98 -6z m114 -62 c41 -41 55 -87 62 -207 8 -144 -24 -230 -86 -230 -72 0 -115 103 -115 270 0 88 4 112 22 147 33 64 67 70 117 20z" fill="#ffffff"/>
<path d="M1185 1056 c-37 -16 -82 -67 -91 -102 -21 -82 26 -148 151 -215 50 -27 98 -58 108 -70 44 -54 -2 -127 -73 -114 -52 10 -92 36 -123 83 -32 47 -74 60 -63 20 3 -13 6 -47 6 -75 0 -50 2 -53 25 -53 14 0 25 5 25 10 0 15 23 12 94 -11 74 -24 115 -21 167 14 98 66 106 183 17 250 -18 14 -64 41 -103 60 -91 46 -115 69 -115 112 0 91 135 85 185 -8 18 -34 49 -56 62 -44 3 3 2 38 -2 76 -7 74 -16 83 -54 59 -14 -9 -27 -8 -60 5 -49 20 -114 21 -156 3z" fill="#ffffff"/>
<path d="M1727 1060 c-55 -14 -91 -35 -121 -70 -46 -55 -27 -120 34 -120 37 0 55 19 75 80 19 57 45 80 92 80 42 0 53 -21 53 -102 l0 -64 -71 -17 c-90 -22 -167 -58 -204 -97 -24 -25 -29 -41 -33 -90 -4 -57 -3 -61 30 -94 78 -78 207 -65 268 27 l22 32 -5 -43 c-4 -29 -1 -47 10 -57 18 -19 9 -20 95 14 40 15 81 31 91 34 9 4 17 15 17 26 0 15 -8 20 -32 23 l-33 3 -5 175 c-5 190 -11 210 -66 247 -30 19 -159 27 -217 13z m128 -387 c-8 -45 -56 -93 -92 -93 -59 0 -90 77 -58 144 20 41 56 71 112 90 l38 13 3 -61 c2 -34 1 -75 -3 -93z" fill="#ffffff"/>
<path d="M2220 1046 c-25 -13 -60 -27 -77 -31 -23 -5 -33 -12 -33 -26 0 -12 7 -19 18 -19 38 0 42 -18 42 -203 l0 -179 -30 -11 c-18 -7 -30 -19 -30 -29 0 -16 12 -18 135 -18 123 0 135 2 135 18 0 10 -12 22 -30 29 l-30 11 0 161 0 161 36 39 c19 22 51 45 71 52 31 10 37 9 57 -10 20 -20 21 -33 24 -212 l3 -190 -35 -14 c-20 -9 -36 -22 -36 -30 0 -13 23 -15 140 -15 133 0 140 1 140 20 0 13 -7 20 -19 20 -46 0 -51 20 -51 206 0 210 -10 246 -74 275 -81 37 -155 20 -226 -51 l-42 -42 4 54 c3 50 2 53 -22 55 -14 2 -45 -8 -70 -21z" fill="#ffffff"/>
<path d="M3258 1064 c-4 -3 -37 -16 -75 -28 -52 -18 -69 -28 -71 -44 -3 -16 3 -21 25 -24 l28 -3 3 -188 2 -189 -30 -11 c-18 -7 -30 -19 -30 -29 0 -16 12 -18 135 -18 123 0 135 2 135 18 0 10 -12 22 -30 29 l-30 11 0 241 0 241 -28 0 c-16 0 -31 -3 -34 -6z" fill="#ffffff"/>
<path d="M4188 1064 c-3 -3 -37 -16 -74 -29 -51 -18 -70 -29 -72 -44 -2 -15 3 -20 25 -23 l28 -3 3 -188 2 -189 -30 -11 c-18 -7 -30 -19 -30 -29 0 -16 12 -18 140 -18 117 0 140 2 140 15 0 8 -16 21 -35 29 l-35 15 0 240 0 241 -28 0 c-16 0 -31 -3 -34 -6z" fill="#ffffff"/>
<path d="M5082 1056 c-61 -20 -103 -56 -137 -117 -27 -49 -30 -63 -30 -144 0 -78 4 -97 27 -140 48 -92 120 -134 227 -135 98 0 191 54 191 111 0 29 -26 23 -51 -12 -42 -59 -122 -75 -180 -36 -38 25 -68 95 -69 160 l0 37 150 0 c149 0 150 0 166 25 27 42 5 142 -45 199 -47 53 -168 78 -249 52z m121 -46 c30 -24 47 -75 47 -142 l0 -48 -96 0 -96 0 4 58 c9 123 75 184 141 132z" fill="#ffffff"/>
<path d="M2664 346 c-3 -7 -3 -70 -2 -141 3 -114 5 -130 21 -133 15 -3 17 7 17 109 0 64 4 109 9 104 4 -6 25 -54 46 -107 26 -67 43 -98 54 -98 11 0 29 32 55 98 22 53 43 101 48 106 4 6 8 -37 8 -95 0 -58 3 -108 6 -112 3 -3 12 -3 20 0 11 4 14 33 14 137 0 73 -2 135 -5 138 -3 2 -17 3 -32 1 -25 -4 -32 -15 -68 -104 -22 -54 -42 -99 -45 -99 -3 0 -24 46 -47 103 -38 91 -46 102 -69 103 -14 1 -27 -3 -30 -10z" fill="#ffffff"/>
<path d="M3160 343 c-102 -53 -106 -193 -8 -253 121 -74 265 62 200 189 -36 71 -123 100 -192 64z m121 -33 c24 -13 49 -61 49 -95 0 -66 -68 -124 -130 -110 -49 11 -75 49 -75 112 0 48 4 58 28 79 30 26 92 33 128 14z" fill="#ffffff"/>
<path d="M3464 351 c-2 -2 -4 -10 -4 -18 0 -9 14 -13 45 -13 l44 0 3 -122 c3 -101 6 -123 18 -123 12 0 15 22 18 123 l3 122 44 0 c33 0 45 4 45 15 0 16 -8 17 -143 19 -38 1 -71 -1 -73 -3z" fill="#ffffff"/>
<path d="M3851 342 c-96 -52 -94 -210 3 -256 107 -51 224 28 213 143 -11 104 -123 163 -216 113z m144 -46 c54 -54 37 -154 -31 -182 -74 -31 -144 18 -144 103 0 36 6 50 29 74 39 39 109 41 146 5z" fill="#ffffff"/>
<path d="M4190 215 c0 -128 1 -135 20 -135 18 0 20 7 20 60 0 56 2 60 23 60 17 0 30 -14 55 -59 31 -57 54 -77 73 -65 5 3 -7 30 -27 61 l-36 56 31 24 c24 19 31 32 31 59 0 57 -27 74 -115 74 l-75 0 0 -135z m131 95 c11 -6 19 -21 19 -35 0 -29 -26 -45 -74 -45 -36 0 -36 0 -36 45 0 45 0 45 36 45 19 0 44 -5 55 -10z" fill="#ffffff"/>
<path d="M4510 215 c0 -74 1 -135 3 -135 1 0 41 -3 90 -7 84 -6 87 -5 87 16 0 19 -5 21 -70 21 l-70 0 0 45 0 45 65 0 c51 0 65 3 65 15 0 12 -14 15 -64 15 l-64 0 -4 34 c-6 53 -2 56 73 56 55 0 69 3 69 15 0 12 -17 15 -90 15 l-90 0 0 -135z" fill="#ffffff"/>
<path d="M4820 215 c0 -128 1 -135 20 -135 19 0 20 7 20 112 l0 113 74 -111 c67 -100 102 -134 120 -116 3 3 6 65 6 139 0 127 -1 133 -20 133 -20 0 -20 -5 -18 -105 2 -58 0 -105 -3 -105 -4 0 -37 47 -75 105 -60 91 -73 105 -96 105 l-28 0 0 -135z" fill="#ffffff"/>
<path d="M5170 335 c0 -11 12 -15 45 -15 l45 0 0 -120 c0 -113 1 -120 20 -120 19 0 20 7 20 120 l0 120 45 0 c33 0 45 4 45 15 0 12 -19 15 -110 15 -91 0 -110 -3 -110 -15z" fill="#ffffff"/>
</g>
</svg>